<?xml version="1.0" encoding="UTF-8" standalone="no"?>
<!-- Created with Inkscape (http://www.inkscape.org/) -->

<svg
   xmlns:dc="http://purl.org/dc/elements/1.1/"
   xmlns:cc="http://creativecommons.org/ns#"
   xmlns:rdf="http://www.w3.org/1999/02/22-rdf-syntax-ns#"
   xmlns:svg="http://www.w3.org/2000/svg"
   xmlns="http://www.w3.org/2000/svg"
   xmlns:sodipodi="http://sodipodi.sourceforge.net/DTD/sodipodi-0.dtd"
   xmlns:inkscape="http://www.inkscape.org/namespaces/inkscape"
   width="740.44812"
   height="926.63458"
   id="svg2"
   version="1.1"
   inkscape:version="0.48.4 r9939"
   sodipodi:docname="entrance_logo.svg"
   inkscape:export-filename="/home/alin/Desktop/logo-shirtb-lowcolour.png"
   inkscape:export-xdpi="600"
   inkscape:export-ydpi="600">
  <sodipodi:namedview
     id="base"
     pagecolor="#000000"
     bordercolor="#666666"
     borderopacity="1.0"
     inkscape:pageopacity="0"
     inkscape:pageshadow="2"
     inkscape:zoom="0.35355339"
     inkscape:cx="762.29913"
     inkscape:cy="274.61167"
     inkscape:document-units="px"
     inkscape:current-layer="g3852"
     showgrid="false"
     inkscape:window-width="1280"
     inkscape:window-height="1000"
     inkscape:window-x="768"
     inkscape:window-y="24"
     inkscape:window-maximized="1"
     fit-margin-top="0"
     fit-margin-left="0"
     fit-margin-bottom="0"
     fit-margin-right="0"
     showborder="true"
     showguides="true"
     inkscape:guide-bbox="true"
     borderlayer="false"
     objecttolerance="10000"
     guidetolerance="10000" />
  <defs
     id="defs4">
    <clipPath
       clipPathUnits="userSpaceOnUse"
       id="clipPath3887">
      <path
         id="path3889"
         d="m 527.28389,484.34806 c 24.70123,0 44.72553,20.0243 44.72553,44.72553 0,24.70123 -20.0243,44.72554 -44.72553,44.72554 -24.70123,0 -44.72554,-20.02431 -44.72554,-44.72554 0,-24.70123 20.02431,-44.72553 44.72554,-44.72553 z"
         style="fill:none;stroke:#000000;stroke-width:0.69507092;stroke-opacity:1"
         inkscape:connector-curvature="0" />
    </clipPath>
  </defs>
  <metadata
     id="metadata7">
    <rdf:RDF>
      <cc:Work
         rdf:about="">
        <dc:format>image/svg+xml</dc:format>
        <dc:type
           rdf:resource="http://purl.org/dc/dcmitype/StillImage" />
        <dc:title />
      </cc:Work>
    </rdf:RDF>
  </metadata>
  <g
     transform="translate(-592.03578,502.70601)"
     id="layer1"
     inkscape:groupmode="layer"
     inkscape:label="Layer 1">
    <g
       id="g3852"
       transform="matrix(3.6501072,0,0,3.6501072,-2557.4671,-1096.3156)">
      <path
         inkscape:connector-curvature="0"
         id="path3846"
         d="m 920.4924,223.98695 c -34.00219,16.37565 -57.64024,50.84286 -57.64024,91.10877 0,56.01231 45.38496,101.39724 101.39725,101.39724 56.01229,0 101.45929,-45.38493 101.45929,-101.39724 0,-40.93 -24.401,-76.01354 -59.3137,-92.03846 1.045,1.61137 2.1463,3.06382 3.1609,4.71039 4.0153,6.51658 7.769,13.2739 10.9702,20.1431 1.6006,3.43459 3.0426,6.88712 4.3385,10.35046 1.296,3.46332 2.423,6.95995 3.3468,10.41242 0.924,3.45245 1.6228,6.8865 2.1074,10.28848 0.4845,3.40194 0.7659,6.79067 0.7437,10.10253 -0.032,4.87524 -0.3414,9.41657 -0.8677,13.69731 -0.5263,4.28074 -1.2773,8.29898 -2.2312,12.02388 -0.954,3.72488 -2.0934,7.14276 -3.4089,10.35044 -1.3154,3.20767 -2.7896,6.19587 -4.4005,8.92494 -1.6108,2.7291 -3.366,5.2103 -5.2062,7.49944 -1.8401,2.28915 -3.7606,4.37199 -5.764,6.25985 -2.0034,1.88784 -4.0974,3.55706 -6.1979,5.08226 -2.1004,1.5252 -4.25229,2.88942 -6.38379,4.09059 -4.26298,2.40234 -8.52927,4.24001 -12.5197,5.57809 -3.99042,1.33809 -7.7192,2.2061 -10.90825,2.78906 -6.37815,1.16588 -10.59837,1.11561 -10.59837,1.11561 0,0 -4.06258,-0.0818 -10.16453,-1.36354 -3.05097,-0.64088 -6.59869,-1.57604 -10.41242,-2.97498 -3.81373,-1.39894 -7.89394,-3.25335 -11.96191,-5.70204 -4.06796,-2.44871 -8.14818,-5.44464 -11.9619,-9.23484 -1.90685,-1.89509 -3.76814,-4.03667 -5.51611,-6.32183 -1.74796,-2.28518 -3.37082,-4.72576 -4.89631,-7.43745 -1.52549,-2.71171 -2.91313,-5.68826 -4.15259,-8.86296 -1.23946,-3.17472 -2.33303,-6.55231 -3.22289,-10.22649 -0.88987,-3.67421 -1.56858,-7.62784 -2.04529,-11.83794 -0.47671,-4.21014 -0.74375,-8.66688 -0.74375,-13.4494 0,-3.31716 0.26704,-6.69654 0.74375,-10.10253 0.47671,-3.40602 1.15542,-6.83314 2.04529,-10.28848 1.77973,-6.91069 4.3245,-13.89171 7.37548,-20.76288 3.05097,-6.87118 6.59869,-13.68934 10.41242,-20.20508 0.76505,-1.3071 1.6337,-2.43357 2.41717,-3.71872 z"
         style="fill:#ffffff;fill-opacity:0.31963471;stroke:none" />
      <path
         sodipodi:nodetypes="ccccc"
         inkscape:connector-curvature="0"
         id="path3824"
         d="m 963.32855,172.11042 c -2.85478,51.88929 -0.87942,157.9201 1.84989,193.31332 -56.90347,-0.67829 -67.53757,-39.96459 -68.44587,-100.81888 l 38.84765,-64.74609 z"
         style="fill:#ffffff;fill-opacity:0.31963471;stroke:none" />
      <path
         transform="matrix(2.2675913,0,0,2.2675913,-231.39288,-884.64889)"
         clip-path="url(#clipPath3887)"
         style="font-size:medium;font-style:normal;font-variant:normal;font-weight:normal;font-stretch:normal;text-indent:0;text-align:start;text-decoration:none;line-height:normal;letter-spacing:normal;word-spacing:normal;text-transform:none;direction:ltr;block-progression:tb;writing-mode:lr-tb;text-anchor:start;baseline-shift:baseline;color:#000000;fill:#ffffff;fill-opacity:1;stroke:none;stroke-width:6.16807938;marker:none;visibility:visible;display:inline;overflow:visible;enable-background:accumulate;font-family:Sans;-inkscape-font-specification:Sans"
         d="m 526.57039,533.93496 a 2.8074044,2.8074044 0 0 0 -2.75908,2.84441 l 0,40.58967 a 2.8074044,2.8074044 0 1 0 5.60348,0 l 0,-40.58967 a 2.8074044,2.8074044 0 0 0 -2.8444,-2.84441 z"
         id="path3785"
         inkscape:connector-curvature="0" />
      <path
         sodipodi:nodetypes="csc"
         style="fill:none;stroke:#ffffff;stroke-width:12.72926331;stroke-linecap:round;stroke-miterlimit:4;stroke-opacity:1;stroke-dasharray:none"
         d="m 942.73531,310.80966 c 4.89999,-10.94327 17.74337,-15.84229 28.68672,-10.94229 4.75076,2.12722 8.57919,5.89059 10.78751,10.60434"
         id="path3789"
         inkscape:connector-curvature="0" />
      <path
         sodipodi:nodetypes="csc"
         style="fill:none;stroke:#ffffff;stroke-width:12.72926331;stroke-linecap:round;stroke-miterlimit:4;stroke-opacity:1;stroke-dasharray:none"
         d="m 923.95008,302.39837 c 9.54538,-21.31803 34.56518,-30.86163 55.88321,-21.31625 9.25486,4.144 16.71279,11.47525 21.01471,20.65782"
         id="path3794"
         inkscape:connector-curvature="0" />
      <path
         style="fill:none;stroke:#ffffff;stroke-width:12.72926331;stroke-linecap:round;stroke-linejoin:round;stroke-miterlimit:4;stroke-opacity:1;stroke-dasharray:none"
         d="m 962.57993,366.47977 c 0,0 67.94627,0.56441 68.46897,-77.43935 0.3552,-52.98972 -68.46897,-120.0478 -68.46897,-120.0478 0,0 -65.08741,66.97321 -65.08741,120.0478 0,76.52048 65.08741,77.43935 65.08741,77.43935 z"
         inkscape:connector-curvature="0"
         sodipodi:nodetypes="cscsc"
         id="path3787" />
    </g>
  </g>
</svg>
