<?xml version="1.0" encoding="UTF-8" standalone="no"?>
<!-- Created with Inkscape (http://www.inkscape.org/) -->

<svg
   xmlns:dc="http://purl.org/dc/elements/1.1/"
   xmlns:cc="http://creativecommons.org/ns#"
   xmlns:rdf="http://www.w3.org/1999/02/22-rdf-syntax-ns#"
   xmlns:svg="http://www.w3.org/2000/svg"
   xmlns="http://www.w3.org/2000/svg"
   xmlns:sodipodi="http://sodipodi.sourceforge.net/DTD/sodipodi-0.dtd"
   xmlns:inkscape="http://www.inkscape.org/namespaces/inkscape"
   width="192"
   height="192"
   id="svg2"
   version="1.1"
   inkscape:version="0.48.5 r10040"
   sodipodi:docname="logo4_very_material.svg"
   inkscape:export-filename="C:\Users\Micheal\Documents\Prgramming\Muun\Android\MuunLight\mobile\src\main\res\mipmap-mdpi\ic_launcher.png"
   inkscape:export-xdpi="20.625"
   inkscape:export-ydpi="20.625">
  <defs
     id="defs4" />
  <sodipodi:namedview
     id="base"
     pagecolor="#ffffff"
     bordercolor="#666666"
     borderopacity="1.0"
     inkscape:pageopacity="0.0"
     inkscape:pageshadow="2"
     inkscape:zoom="2.6442847"
     inkscape:cx="49.28752"
     inkscape:cy="97.279513"
     inkscape:document-units="px"
     inkscape:current-layer="layer1"
     showgrid="false"
     inkscape:window-width="1920"
     inkscape:window-height="990"
     inkscape:window-x="-11"
     inkscape:window-y="-11"
     inkscape:window-maximized="1" />
  <metadata
     id="metadata7">
    <rdf:RDF>
      <cc:Work
         rdf:about="">
        <dc:format>image/svg+xml</dc:format>
        <dc:type
           rdf:resource="http://purl.org/dc/dcmitype/StillImage" />
        <dc:title></dc:title>
      </cc:Work>
    </rdf:RDF>
  </metadata>
  <g
     inkscape:label="Layer 1"
     inkscape:groupmode="layer"
     id="layer1"
     transform="translate(0,-860.36218)">
    <path
       sodipodi:type="arc"
       style="opacity:0.93000034;fill:#2196f3;fill-opacity:1;fill-rule:nonzero;stroke:none"
       id="path2989"
       sodipodi:cx="86.769234"
       sodipodi:cy="125.01099"
       sodipodi:rx="68.043953"
       sodipodi:ry="68.043953"
       d="m 154.81319,125.01099 a 68.043953,68.043953 0 1 1 -136.087909,0 68.043953,68.043953 0 1 1 136.087909,0 z"
       transform="matrix(1.1286042,0,0,1.1286042,0.1193218,821.81046)" />
    <path
       style="opacity:0.93000034;fill:#8f8f8f;fill-opacity:1;fill-rule:nonzero;stroke:none"
       d="m 148.40625,902.67468 c 1.39172,1.16392 2.79122,2.3093 4.09375,3.5625 1.77034,1.70329 3.4299,3.47793 5.03125,5.34375 0.74118,0.8636 1.39082,1.8223 2.09375,2.71875 6.87471,-4.36245 11.41862,-12.04582 11.25,-20.78125 -0.24296,-12.5874 -10.14199,-22.61572 -22.46875,-23.46875 l 0,32.625 z"
       id="path3930"
       inkscape:connector-curvature="0" />
    <path
       style="opacity:0.93000034;fill:#bdbdbd;fill-opacity:1;fill-rule:nonzero;stroke:none"
       d="m 148.40625,902.67468 0,-32.625 c -0.71066,-0.0492 -1.39931,-0.20151 -2.125,-0.1875 -11.33805,0.21885 -20.60024,8.24804 -22.96875,18.84375 1.50065,0.4954 3.01012,0.97848 4.46875,1.5625 2.31523,0.927 4.55133,1.95376 6.75,3.09375 2.19866,1.14001 4.3685,2.37836 6.4375,3.71875 2.06901,1.34038 4.04251,2.78436 5.96875,4.3125 0.509,0.40381 0.96891,0.86322 1.46875,1.28125 z"
       id="path2991"
       inkscape:connector-curvature="0" />
    <path
       style="opacity:0.93000034;fill:#3d5afe;fill-opacity:0;fill-rule:nonzero;stroke:none"
       d="m 99.1875,1039.6434 0,-153.46872 c -0.37902,-0.006 -0.74467,-0.0625 -1.125,-0.0625 -42.412537,0 -76.8125,34.36871 -76.8125,76.78125 0,42.41257 34.399963,76.81247 76.8125,76.81247 0.38027,0 0.74604,-0.057 1.125,-0.062 z"
       id="path3913"
       inkscape:connector-curvature="0" />
    <path
       style="opacity:0.93000034;fill:#000000;fill-opacity:0.16608994;fill-rule:nonzero;stroke:none"
       d="m 99.1875,1039.6434 c 41.88746,-0.6089 75.65625,-34.7177 75.65625,-76.74997 0,-42.03221 -33.76888,-76.10974 -75.65625,-76.71875 l 0,153.46872 z"
       id="path3925"
       inkscape:connector-curvature="0" />
    <path
       style="fill:none;stroke:#eceff1;stroke-width:25;stroke-linecap:butt;stroke-linejoin:round;stroke-miterlimit:4;stroke-opacity:0.60481101;stroke-dasharray:none"
       d="m 50.952644,917.32038 96.802246,0 z"
       id="path4514"
       inkscape:connector-curvature="0"
       sodipodi:nodetypes="ccc" />
    <path
       inkscape:connector-curvature="0"
       id="path4516"
       d="m 82.23956,1023.2146 54.55154,0 z"
       style="fill:none;stroke:#eceff1;stroke-width:25;stroke-linecap:butt;stroke-linejoin:round;stroke-miterlimit:4;stroke-opacity:0.60481101;stroke-dasharray:none"
       sodipodi:nodetypes="ccc" />
    <path
       style="fill:none;stroke:#eceff1;stroke-width:25;stroke-linecap:butt;stroke-linejoin:round;stroke-miterlimit:4;stroke-opacity:0.60481101;stroke-dasharray:none"
       d="m 27.259056,987.64912 69.526464,0 z"
       id="path4518"
       inkscape:connector-curvature="0" />
    <path
       inkscape:connector-curvature="0"
       id="path4544"
       d="m 130.20056,953.95552 28.88022,0 z"
       style="fill:none;stroke:#eceff1;stroke-width:25;stroke-linecap:butt;stroke-linejoin:round;stroke-miterlimit:4;stroke-opacity:0.60481101;stroke-dasharray:none"
       sodipodi:nodetypes="scs" />
  </g>
</svg>
